<?xml version="1.0" encoding="utf-8" standalone="no"?>
<!DOCTYPE svg PUBLIC "-//W3C//DTD SVG 1.1//EN"
  "http://www.w3.org/Graphics/SVG/1.1/DTD/svg11.dtd">
<!-- Created with matplotlib (https://matplotlib.org/) -->
<svg height="345.6pt" version="1.1" viewBox="0 0 460.8 345.6" width="460.8pt" xmlns="http://www.w3.org/2000/svg" xmlns:xlink="http://www.w3.org/1999/xlink">
 <defs>
  <style type="text/css">
*{stroke-linecap:butt;stroke-linejoin:round;}
  </style>
 </defs>
 <g id="figure_1">
  <g id="patch_1">
   <path d="M 0 345.6 
L 460.8 345.6 
L 460.8 0 
L 0 0 
z
" style="fill:#ffffff;"/>
  </g>
  <g id="axes_1">
   <g id="patch_2">
    <path d="M 57.6 307.584 
L 414.72 307.584 
L 414.72 41.472 
L 57.6 41.472 
z
" style="fill:#ffffff;"/>
   </g>
   <g id="PolyCollection_1">
    <defs>
     <path d="M 414.303583 -287.781705 
L 414.303583 -74.388316 
L 413.47075 -74.454906 
L 412.637917 -74.116882 
L 411.805084 -74.058543 
L 410.972251 -74.19799 
L 410.139418 -74.264421 
L 409.306585 -74.198699 
L 408.473752 -73.45252 
L 407.640919 -73.786247 
L 406.808086 -74.157273 
L 405.975253 -74.054615 
L 405.14242 -73.884593 
L 404.309587 -74.335808 
L 403.476754 -74.262624 
L 402.643921 -74.165892 
L 401.811088 -74.505167 
L 400.978255 -74.784253 
L 400.145422 -74.758383 
L 399.312589 -74.790084 
L 398.479756 -74.978942 
L 397.646923 -75.279883 
L 396.81409 -75.590793 
L 395.981256 -75.752961 
L 395.148423 -75.704096 
L 394.31559 -75.701377 
L 393.482757 -75.736635 
L 392.649924 -75.592635 
L 391.817091 -75.71483 
L 390.984258 -76.131517 
L 390.151425 -76.274303 
L 389.318592 -76.420122 
L 388.485759 -76.456336 
L 387.652926 -76.654881 
L 386.820093 -76.864844 
L 385.98726 -76.911979 
L 385.154427 -76.784543 
L 384.321594 -76.861915 
L 383.488761 -77.068933 
L 382.655927 -77.213034 
L 381.823094 -77.439574 
L 380.990263 -77.639048 
L 380.157429 -77.862678 
L 379.324596 -77.918241 
L 378.491762 -77.749309 
L 377.658929 -77.751503 
L 376.826098 -77.924127 
L 375.993264 -77.865623 
L 375.160431 -77.790623 
L 374.327597 -78.001466 
L 373.494764 -78.234656 
L 372.66193 -78.18915 
L 371.829099 -78.399641 
L 370.996266 -78.617005 
L 370.163432 -78.464931 
L 369.330599 -78.743583 
L 368.497765 -78.890403 
L 367.664934 -79.151617 
L 366.832101 -79.145413 
L 365.999267 -78.985429 
L 365.166434 -78.954313 
L 364.3336 -79.039455 
L 363.500769 -78.895243 
L 362.667936 -79.154558 
L 361.835102 -79.091967 
L 361.002269 -79.179773 
L 360.169435 -78.940334 
L 359.336601 -78.972604 
L 358.503771 -78.780711 
L 357.670937 -78.619373 
L 356.838103 -78.55679 
L 356.00527 -78.743508 
L 355.172436 -78.689281 
L 354.339606 -78.634521 
L 353.506772 -78.329152 
L 352.673938 -78.27917 
L 351.841105 -78.219575 
L 351.008271 -78.134528 
L 350.175441 -77.919241 
L 349.342607 -77.957162 
L 348.509773 -77.756849 
L 347.67694 -77.682391 
L 346.844106 -77.587027 
L 346.011273 -77.367214 
L 345.178442 -77.142034 
L 344.345608 -76.959945 
L 343.512775 -77.065857 
L 342.679941 -77.073974 
L 341.847108 -76.985686 
L 341.014277 -76.942424 
L 340.181443 -76.843273 
L 339.34861 -76.795456 
L 338.515776 -76.497708 
L 337.682943 -76.535753 
L 336.850112 -76.55279 
L 336.017278 -76.433626 
L 335.184445 -76.430924 
L 334.351611 -76.319763 
L 333.518778 -76.077288 
L 332.685944 -76.019096 
L 331.853113 -75.871778 
L 331.02028 -75.863358 
L 330.187446 -75.856051 
L 329.354613 -75.754153 
L 328.521779 -75.669735 
L 327.688948 -75.56163 
L 326.856115 -75.473356 
L 326.023281 -75.329566 
L 325.190448 -75.293578 
L 324.357614 -75.286308 
L 323.524783 -75.204199 
L 322.69195 -75.03831 
L 321.859116 -75.03808 
L 321.026282 -75.030566 
L 320.193449 -74.91934 
L 319.360615 -74.863436 
L 318.527785 -74.878502 
L 317.694951 -74.809703 
L 316.862117 -74.786576 
L 316.029284 -74.64536 
L 315.19645 -74.608184 
L 314.36362 -74.624054 
L 313.530786 -74.462533 
L 312.697952 -74.416099 
L 311.865119 -74.259568 
L 311.032285 -74.285002 
L 310.199455 -74.202496 
L 309.366621 -74.180738 
L 308.533787 -74.248737 
L 307.700954 -74.141447 
L 306.86812 -74.001254 
L 306.035287 -73.897703 
L 305.202456 -73.868586 
L 304.369622 -73.82757 
L 303.536789 -73.693086 
L 302.703955 -73.733273 
L 301.871122 -73.735381 
L 301.038291 -73.694603 
L 300.205457 -73.610127 
L 299.372624 -73.536914 
L 298.53979 -73.525921 
L 297.706957 -73.482645 
L 296.874126 -73.446061 
L 296.041292 -73.362933 
L 295.208459 -73.456664 
L 294.375625 -73.405965 
L 293.542792 -73.305683 
L 292.709961 -73.281996 
L 291.877127 -73.183743 
L 291.044294 -73.093133 
L 290.21146 -72.944915 
L 289.378627 -72.896987 
L 288.545793 -72.823785 
L 287.712962 -72.625838 
L 286.880129 -72.572475 
L 286.047295 -72.602041 
L 285.214462 -72.459997 
L 284.381628 -72.357935 
L 283.548797 -72.420008 
L 282.715964 -72.359036 
L 281.88313 -72.215681 
L 281.050296 -72.188164 
L 280.217463 -72.215582 
L 279.384632 -72.134777 
L 278.551799 -72.108403 
L 277.718965 -72.018063 
L 276.886131 -71.996212 
L 276.053298 -71.953829 
L 275.220464 -71.822348 
L 274.387634 -71.859794 
L 273.5548 -71.946788 
L 272.721966 -71.79213 
L 271.889133 -71.821865 
L 271.056299 -71.776343 
L 270.223469 -71.757089 
L 269.390635 -71.644203 
L 268.557801 -71.511134 
L 267.724968 -71.541961 
L 266.892134 -71.452697 
L 266.059304 -71.424559 
L 265.22647 -71.392034 
L 264.393636 -71.347212 
L 263.560803 -71.388603 
L 262.727969 -71.214956 
L 261.895136 -71.192225 
L 261.062305 -71.172265 
L 260.229471 -71.119504 
L 259.396638 -71.017774 
L 258.563804 -71.078724 
L 257.730971 -71.029393 
L 256.89814 -70.908198 
L 256.065306 -70.920863 
L 255.232473 -70.853729 
L 254.399639 -70.687297 
L 253.566806 -70.667262 
L 252.733975 -70.711769 
L 251.901141 -70.693232 
L 251.068308 -70.538401 
L 250.235474 -70.431145 
L 249.402641 -70.48197 
L 248.569807 -70.376816 
L 247.736976 -70.230383 
L 246.904143 -70.235442 
L 246.071309 -70.117384 
L 245.238475 -70.022914 
L 244.405642 -69.931648 
L 243.572811 -69.89155 
L 242.739978 -69.897165 
L 241.907144 -69.699454 
L 241.07431 -69.682333 
L 240.241477 -69.540862 
L 239.408646 -69.426768 
L 238.575813 -69.282188 
L 237.742979 -69.353362 
L 236.910145 -69.461376 
L 236.077312 -69.204666 
L 235.244478 -68.973209 
L 234.411648 -68.899075 
L 233.578814 -68.805429 
L 232.74598 -68.684943 
L 231.913147 -68.617872 
L 231.080313 -68.578495 
L 230.247483 -68.386968 
L 229.414649 -68.189404 
L 228.581815 -68.105801 
L 227.748982 -68.040152 
L 226.916148 -67.98762 
L 226.083318 -67.936051 
L 225.250484 -67.906117 
L 224.41765 -67.865616 
L 223.584817 -67.710354 
L 222.751983 -67.696916 
L 221.91915 -67.589661 
L 221.086319 -67.492738 
L 220.253485 -67.407965 
L 219.420652 -67.364711 
L 218.587818 -67.325626 
L 217.754985 -67.115678 
L 216.922154 -67.078565 
L 216.08932 -66.936333 
L 215.256487 -66.923835 
L 214.423653 -66.897759 
L 213.59082 -66.917814 
L 212.757989 -66.923933 
L 211.925155 -66.667014 
L 211.092322 -66.630115 
L 210.259488 -66.579166 
L 209.426654 -66.543396 
L 208.593821 -66.460809 
L 207.76099 -66.499262 
L 206.928157 -66.419093 
L 206.095323 -66.267924 
L 205.262489 -66.182427 
L 204.429656 -66.064292 
L 203.596825 -66.032534 
L 202.763992 -65.991381 
L 201.931158 -65.972747 
L 201.098324 -65.910256 
L 200.265491 -65.687084 
L 199.43266 -65.63341 
L 198.599827 -65.556673 
L 197.766993 -65.52991 
L 196.934159 -65.447862 
L 196.101326 -65.532529 
L 195.268492 -65.40625 
L 194.435662 -65.149833 
L 193.602828 -65.127211 
L 192.769994 -65.00297 
L 191.937161 -64.996478 
L 191.104327 -64.956427 
L 190.271497 -64.954594 
L 189.438663 -64.770519 
L 188.605829 -64.602857 
L 187.772996 -64.593695 
L 186.940162 -64.572052 
L 186.107332 -64.568901 
L 185.274498 -64.518022 
L 184.441664 -64.650195 
L 183.608831 -64.455103 
L 182.775997 -64.293483 
L 181.943164 -64.318419 
L 181.110333 -64.282093 
L 180.277499 -64.287004 
L 179.444666 -64.381819 
L 178.611832 -64.419063 
L 177.778999 -64.153221 
L 176.946168 -64.086241 
L 176.113334 -64.092301 
L 175.280501 -64.038094 
L 174.447667 -64.145804 
L 173.614834 -64.169728 
L 172.782003 -64.021043 
L 171.949169 -63.853792 
L 171.116336 -63.85243 
L 170.283502 -63.838647 
L 169.450668 -63.904618 
L 168.617835 -63.920457 
L 167.785004 -63.944987 
L 166.952171 -63.707441 
L 166.119337 -63.626991 
L 165.286503 -63.691434 
L 164.45367 -63.763569 
L 163.620839 -63.727 
L 162.788006 -63.817692 
L 161.955172 -63.734086 
L 161.122338 -63.565342 
L 160.289505 -63.668102 
L 159.456674 -63.617131 
L 158.623841 -63.666933 
L 157.791007 -63.73957 
L 156.958173 -63.698001 
L 156.12534 -63.628898 
L 155.292506 -63.422378 
L 154.459676 -63.488511 
L 153.626842 -63.507471 
L 152.794008 -63.482657 
L 151.961175 -63.610077 
L 151.128341 -63.496783 
L 150.295511 -63.399947 
L 149.462677 -63.38677 
L 148.629843 -63.458721 
L 147.79701 -63.403933 
L 146.964176 -63.37879 
L 146.131346 -63.436022 
L 145.298512 -63.343801 
L 144.465678 -63.325833 
L 143.632845 -63.367023 
L 142.800011 -63.398044 
L 141.967178 -63.403877 
L 141.134347 -63.522815 
L 140.301513 -63.454387 
L 139.46868 -63.441659 
L 138.635846 -63.386814 
L 137.803013 -63.34505 
L 136.970182 -63.356775 
L 136.137348 -63.455597 
L 135.304515 -63.323907 
L 134.471681 -63.358926 
L 133.638847 -63.30927 
L 132.806017 -63.317096 
L 131.973183 -63.2942 
L 131.14035 -63.343941 
L 130.307516 -63.372739 
L 129.474682 -63.353393 
L 128.641849 -63.361896 
L 127.809018 -63.314867 
L 126.976185 -63.338725 
L 126.143351 -63.305458 
L 125.310517 -63.302535 
L 124.477684 -63.306871 
L 123.644853 -63.254673 
L 122.81202 -63.234138 
L 121.979186 -63.192174 
L 121.146352 -63.175671 
L 120.313519 -63.165759 
L 119.480688 -63.162974 
L 118.647855 -63.107172 
L 117.815021 -63.048582 
L 116.982181 -63.021581 
L 116.149348 -63.05491 
L 115.316514 -63.015171 
L 114.483681 -63.051708 
L 113.650847 -63.053373 
L 112.818013 -63.017912 
L 111.98518 -62.997178 
L 111.152346 -63.009418 
L 110.319513 -62.946403 
L 109.486679 -62.920911 
L 108.653845 -62.900453 
L 107.821012 -62.882626 
L 106.988178 -62.845984 
L 106.155345 -62.834569 
L 105.322511 -62.830189 
L 104.489677 -62.750892 
L 103.656874 -62.761806 
L 102.82404 -62.762122 
L 101.991206 -62.720653 
L 101.158373 -62.666979 
L 100.325539 -62.689845 
L 99.492706 -62.628569 
L 98.659872 -62.598442 
L 97.827038 -62.624507 
L 96.994205 -62.544549 
L 96.161371 -62.538103 
L 95.328538 -62.527391 
L 94.495704 -62.490531 
L 93.66287 -62.464672 
L 92.830037 -62.514333 
L 91.997203 -62.392782 
L 91.16437 -62.374699 
L 90.331536 -62.390368 
L 89.498702 -62.345653 
L 88.665869 -62.314537 
L 87.833035 -62.34827 
L 87.000202 -62.228175 
L 86.167368 -62.231425 
L 85.334534 -62.237608 
L 84.501701 -62.170139 
L 83.668867 -62.14161 
L 82.836034 -62.164136 
L 82.0032 -62.036022 
L 82.0032 -78.465685 
L 82.0032 -78.465685 
L 82.836034 -78.478126 
L 83.668867 -78.659573 
L 84.501701 -78.778452 
L 85.334534 -78.8392 
L 86.167368 -79.004062 
L 87.000202 -79.115791 
L 87.833035 -79.141646 
L 88.665869 -79.339709 
L 89.498702 -79.438986 
L 90.331536 -79.514736 
L 91.16437 -79.691627 
L 91.997203 -79.796658 
L 92.830037 -79.824231 
L 93.66287 -80.05335 
L 94.495704 -80.155255 
L 95.328538 -80.248644 
L 96.161371 -80.415012 
L 96.994205 -80.531586 
L 97.827038 -80.618998 
L 98.659872 -80.817746 
L 99.492706 -80.926869 
L 100.325539 -81.004704 
L 101.158373 -81.20823 
L 101.991206 -81.290088 
L 102.82404 -81.423616 
L 103.656874 -81.606102 
L 104.489677 -81.745644 
L 105.322511 -81.801563 
L 106.155345 -81.985323 
L 106.988178 -82.116645 
L 107.821012 -82.24609 
L 108.653845 -82.412681 
L 109.486679 -82.536441 
L 110.319513 -82.662387 
L 111.152346 -82.759102 
L 111.98518 -82.93498 
L 112.818013 -83.082642 
L 113.650847 -83.228316 
L 114.483681 -83.392071 
L 115.316514 -83.604008 
L 116.149348 -83.728878 
L 116.982181 -83.949141 
L 117.815021 -84.098814 
L 118.647855 -84.224515 
L 119.480688 -84.340536 
L 120.313519 -84.498509 
L 121.146352 -84.644547 
L 121.979186 -84.810425 
L 122.81202 -84.94607 
L 123.644853 -85.127238 
L 124.477684 -85.280676 
L 125.310517 -85.473801 
L 126.143351 -85.655176 
L 126.976185 -85.819966 
L 127.809018 -86.047383 
L 128.641849 -86.197967 
L 129.474682 -86.398009 
L 130.307516 -86.56207 
L 131.14035 -86.787394 
L 131.973183 -87.037191 
L 132.806017 -87.207871 
L 133.638847 -87.426483 
L 134.471681 -87.541238 
L 135.304515 -87.791261 
L 136.137348 -87.816177 
L 136.970182 -88.108832 
L 137.803013 -88.366224 
L 138.635846 -88.543342 
L 139.46868 -88.650076 
L 140.301513 -88.843173 
L 141.134347 -88.950547 
L 141.967178 -89.300801 
L 142.800011 -89.52526 
L 143.632845 -89.759864 
L 144.465678 -90.029569 
L 145.298512 -90.183765 
L 146.131346 -90.326107 
L 146.964176 -90.611377 
L 147.79701 -90.772887 
L 148.629843 -90.931292 
L 149.462677 -91.253657 
L 150.295511 -91.433207 
L 151.128341 -91.547891 
L 151.961175 -91.643162 
L 152.794008 -91.999171 
L 153.626842 -92.181846 
L 154.459676 -92.443636 
L 155.292506 -92.746098 
L 156.12534 -92.678262 
L 156.958173 -92.852601 
L 157.791007 -93.023151 
L 158.623841 -93.318617 
L 159.456674 -93.618281 
L 160.289505 -93.771113 
L 161.122338 -94.141587 
L 161.955172 -94.157369 
L 162.788006 -94.283404 
L 163.620839 -94.631716 
L 164.45367 -94.788205 
L 165.286503 -95.116411 
L 166.119337 -95.464211 
L 166.952171 -95.59634 
L 167.785004 -95.534384 
L 168.617835 -95.789976 
L 169.450668 -96.008858 
L 170.283502 -96.352938 
L 171.116336 -96.57693 
L 171.949169 -96.831106 
L 172.782003 -96.79394 
L 173.614834 -96.864823 
L 174.447667 -97.158521 
L 175.280501 -97.50936 
L 176.113334 -97.678051 
L 176.946168 -97.946899 
L 177.778999 -98.095287 
L 178.611832 -97.982343 
L 179.444666 -98.259861 
L 180.277499 -98.654589 
L 181.110333 -98.907868 
L 181.943164 -99.08664 
L 182.775997 -99.416435 
L 183.608831 -99.454894 
L 184.441664 -99.414785 
L 185.274498 -99.86672 
L 186.107332 -100.082949 
L 186.940162 -100.310789 
L 187.772996 -100.55622 
L 188.605829 -100.811741 
L 189.438663 -100.867132 
L 190.271497 -100.866453 
L 191.104327 -101.157595 
L 191.937161 -101.377493 
L 192.769994 -101.621926 
L 193.602828 -101.760047 
L 194.435662 -102.026139 
L 195.268492 -101.921384 
L 196.101326 -102.025797 
L 196.934159 -102.460557 
L 197.766993 -102.630811 
L 198.599827 -102.91292 
L 199.43266 -103.116177 
L 200.265491 -103.320098 
L 201.098324 -103.239533 
L 201.931158 -103.461507 
L 202.763992 -103.754759 
L 203.596825 -104.000033 
L 204.429656 -104.247601 
L 205.262489 -104.365267 
L 206.095323 -104.521765 
L 206.928157 -104.606013 
L 207.76099 -104.757711 
L 208.593821 -105.142827 
L 209.426654 -105.331625 
L 210.259488 -105.588568 
L 211.092322 -105.815435 
L 211.925155 -106.048141 
L 212.757989 -106.003339 
L 213.59082 -106.310854 
L 214.423653 -106.70421 
L 215.256487 -107.015511 
L 216.08932 -107.332857 
L 216.922154 -107.474465 
L 217.754985 -107.783548 
L 218.587818 -107.874997 
L 219.420652 -108.169646 
L 220.253485 -108.490636 
L 221.086319 -108.739285 
L 221.91915 -108.943599 
L 222.751983 -109.184605 
L 223.584817 -109.511244 
L 224.41765 -109.673545 
L 225.250484 -109.980545 
L 226.083318 -110.305775 
L 226.916148 -110.672803 
L 227.748982 -110.953481 
L 228.581815 -111.282293 
L 229.414649 -111.492557 
L 230.247483 -111.622083 
L 231.080313 -111.672968 
L 231.913147 -111.998391 
L 232.74598 -112.325803 
L 233.578814 -112.541826 
L 234.411648 -112.879203 
L 235.244478 -113.101418 
L 236.077312 -113.255954 
L 236.910145 -113.323729 
L 237.742979 -113.845336 
L 238.575813 -114.366714 
L 239.408646 -114.555948 
L 240.241477 -114.850493 
L 241.07431 -115.088558 
L 241.907144 -115.485673 
L 242.739978 -115.638697 
L 243.572811 -116.058714 
L 244.405642 -116.437313 
L 245.238475 -116.917347 
L 246.071309 -117.223683 
L 246.904143 -117.465049 
L 247.736976 -117.887613 
L 248.569807 -118.132811 
L 249.402641 -118.336347 
L 250.235474 -118.836755 
L 251.068308 -119.134643 
L 251.901141 -119.523248 
L 252.733975 -119.959115 
L 253.566806 -120.39833 
L 254.399639 -120.813407 
L 255.232473 -121.022506 
L 256.065306 -121.271307 
L 256.89814 -121.72677 
L 257.730971 -122.165849 
L 258.563804 -122.516523 
L 259.396638 -123.031167 
L 260.229471 -123.359418 
L 261.062305 -123.716905 
L 261.895136 -124.190661 
L 262.727969 -124.625612 
L 263.560803 -124.94451 
L 264.393636 -125.483184 
L 265.22647 -125.863779 
L 266.059304 -126.299484 
L 266.892134 -126.802618 
L 267.724968 -127.134629 
L 268.557801 -127.706975 
L 269.390635 -128.040123 
L 270.223469 -128.515573 
L 271.056299 -128.969903 
L 271.889133 -129.463431 
L 272.721966 -130.046188 
L 273.5548 -130.347723 
L 274.387634 -130.933938 
L 275.220464 -131.512154 
L 276.053298 -131.916721 
L 276.886131 -132.436866 
L 277.718965 -133.05774 
L 278.551799 -133.521244 
L 279.384632 -133.988044 
L 280.217463 -134.363878 
L 281.050296 -134.943159 
L 281.88313 -135.515524 
L 282.715964 -135.954877 
L 283.548797 -136.423245 
L 284.381628 -137.208316 
L 285.214462 -137.553357 
L 286.047295 -137.885498 
L 286.880129 -138.491686 
L 287.712962 -138.969091 
L 288.545793 -139.428428 
L 289.378627 -139.997421 
L 290.21146 -140.450613 
L 291.044294 -140.821283 
L 291.877127 -141.255398 
L 292.709961 -141.682079 
L 293.542792 -142.224675 
L 294.375625 -142.736749 
L 295.208459 -143.328112 
L 296.041292 -144.176917 
L 296.874126 -144.700424 
L 297.706957 -145.210506 
L 298.53979 -145.716072 
L 299.372624 -146.467249 
L 300.205457 -146.967957 
L 301.038291 -147.560918 
L 301.871122 -148.190276 
L 302.703955 -148.829163 
L 303.536789 -149.54434 
L 304.369622 -149.884255 
L 305.202456 -150.424957 
L 306.035287 -151.037029 
L 306.86812 -151.584889 
L 307.700954 -152.193359 
L 308.533787 -152.834622 
L 309.366621 -153.64737 
L 310.199455 -154.215342 
L 311.032285 -154.706462 
L 311.865119 -155.379558 
L 312.697952 -155.97757 
L 313.530786 -156.674074 
L 314.36362 -157.333757 
L 315.19645 -158.065632 
L 316.029284 -158.656891 
L 316.862117 -159.154154 
L 317.694951 -159.909566 
L 318.527785 -160.594964 
L 319.360615 -161.430789 
L 320.193449 -162.04038 
L 321.026282 -162.639096 
L 321.859116 -163.444418 
L 322.69195 -164.057153 
L 323.524783 -164.697649 
L 324.357614 -165.317543 
L 325.190448 -166.253276 
L 326.023281 -166.996558 
L 326.856115 -167.719106 
L 327.688948 -168.412149 
L 328.521779 -169.163712 
L 329.354613 -169.849392 
L 330.187446 -170.69558 
L 331.02028 -171.52932 
L 331.853113 -172.445073 
L 332.685944 -173.150639 
L 333.518778 -173.821662 
L 334.351611 -174.367146 
L 335.184445 -175.078979 
L 336.017278 -176.034687 
L 336.850112 -176.812367 
L 337.682943 -177.689642 
L 338.515776 -178.663756 
L 339.34861 -178.945942 
L 340.181443 -179.767691 
L 341.014277 -180.427641 
L 341.847108 -181.302808 
L 342.679941 -182.281596 
L 343.512775 -183.334406 
L 344.345608 -184.473289 
L 345.178442 -185.117831 
L 346.011273 -185.671742 
L 346.844106 -186.508975 
L 347.67694 -187.377841 
L 348.509773 -188.353356 
L 349.342607 -189.555246 
L 350.175441 -190.710418 
L 351.008271 -191.369074 
L 351.841105 -192.319941 
L 352.673938 -193.273217 
L 353.506772 -194.334526 
L 354.339606 -195.214499 
L 355.172436 -196.474737 
L 356.00527 -197.594164 
L 356.838103 -198.744319 
L 357.670937 -199.588514 
L 358.503771 -200.622677 
L 359.336601 -201.52601 
L 360.169435 -202.803308 
L 361.002269 -203.778184 
L 361.835102 -205.339557 
L 362.667936 -206.48569 
L 363.500769 -208.200875 
L 364.3336 -209.111761 
L 365.166434 -210.523341 
L 365.999267 -211.206049 
L 366.832101 -212.826234 
L 367.664934 -214.022943 
L 368.497765 -215.638443 
L 369.330599 -217.368448 
L 370.163432 -218.89344 
L 370.996266 -220.118358 
L 371.829099 -221.353157 
L 372.66193 -222.415164 
L 373.494764 -223.910483 
L 374.327597 -225.272368 
L 375.160431 -227.178592 
L 375.993264 -228.620586 
L 376.826098 -229.807349 
L 377.658929 -231.714578 
L 378.491762 -232.663905 
L 379.324596 -233.775147 
L 380.157429 -235.586446 
L 380.990263 -236.919375 
L 381.823094 -238.727159 
L 382.655927 -240.315576 
L 383.488761 -241.578789 
L 384.321594 -243.448397 
L 385.154427 -244.877602 
L 385.98726 -246.229579 
L 386.820093 -247.825454 
L 387.652926 -249.484146 
L 388.485759 -251.192388 
L 389.318592 -252.446698 
L 390.151425 -253.68806 
L 390.984258 -255.472524 
L 391.817091 -257.074169 
L 392.649924 -258.60708 
L 393.482757 -260.05501 
L 394.31559 -261.111458 
L 395.148423 -263.173667 
L 395.981256 -264.605322 
L 396.81409 -266.148906 
L 397.646923 -268.924966 
L 398.479756 -269.707975 
L 399.312589 -270.766708 
L 400.145422 -271.963777 
L 400.978255 -273.319967 
L 401.811088 -275.257961 
L 402.643921 -276.637509 
L 403.476754 -278.290409 
L 404.309587 -278.790307 
L 405.14242 -279.571101 
L 405.975253 -280.26058 
L 406.808086 -282.211076 
L 407.640919 -282.79443 
L 408.473752 -285.117505 
L 409.306585 -284.868205 
L 410.139418 -285.378564 
L 410.972251 -285.902472 
L 411.805084 -285.165473 
L 412.637917 -287.410964 
L 413.47075 -288.226141 
L 414.303583 -287.781705 
z
" id="mbb7b4f8a40" style="stroke:#000000;stroke-opacity:0.15;"/>
    </defs>
    <g clip-path="url(#p1ea1384850)">
     <use style="fill-opacity:0.15;stroke:#000000;stroke-opacity:0.15;" x="0" xlink:href="#mbb7b4f8a40" y="345.6"/>
    </g>
   </g>
   <g id="matplotlib.axis_1">
    <g id="xtick_1">
     <g id="line2d_1">
      <defs>
       <path d="M 0 0 
L 0 3.5 
" id="m5d10eeaf65" style="stroke:#000000;stroke-width:0.8;"/>
      </defs>
      <g>
       <use style="stroke:#000000;stroke-width:0.8;" x="57.6" xlink:href="#m5d10eeaf65" y="307.584"/>
      </g>
     </g>
     <g id="text_1">
      <!-- −12 -->
      <defs>
       <path d="M 10.59375 35.5 
L 73.1875 35.5 
L 73.1875 27.203125 
L 10.59375 27.203125 
z
" id="DejaVuSans-8722"/>
       <path d="M 12.40625 8.296875 
L 28.515625 8.296875 
L 28.515625 63.921875 
L 10.984375 60.40625 
L 10.984375 69.390625 
L 28.421875 72.90625 
L 38.28125 72.90625 
L 38.28125 8.296875 
L 54.390625 8.296875 
L 54.390625 0 
L 12.40625 0 
z
" id="DejaVuSans-49"/>
       <path d="M 19.1875 8.296875 
L 53.609375 8.296875 
L 53.609375 0 
L 7.328125 0 
L 7.328125 8.296875 
Q 12.9375 14.109375 22.625 23.890625 
Q 32.328125 33.6875 34.8125 36.53125 
Q 39.546875 41.84375 41.421875 45.53125 
Q 43.3125 49.21875 43.3125 52.78125 
Q 43.3125 58.59375 39.234375 62.25 
Q 35.15625 65.921875 28.609375 65.921875 
Q 23.96875 65.921875 18.8125 64.3125 
Q 13.671875 62.703125 7.8125 59.421875 
L 7.8125 69.390625 
Q 13.765625 71.78125 18.9375 73 
Q 24.125 74.21875 28.421875 74.21875 
Q 39.75 74.21875 46.484375 68.546875 
Q 53.21875 62.890625 53.21875 53.421875 
Q 53.21875 48.921875 51.53125 44.890625 
Q 49.859375 40.875 45.40625 35.40625 
Q 44.1875 33.984375 37.640625 27.21875 
Q 31.109375 20.453125 19.1875 8.296875 
z
" id="DejaVuSans-50"/>
      </defs>
      <g transform="translate(47.047656 322.182437)scale(0.1 -0.1)">
       <use xlink:href="#DejaVuSans-8722"/>
       <use x="83.789062" xlink:href="#DejaVuSans-49"/>
       <use x="147.412109" xlink:href="#DejaVuSans-50"/>
      </g>
     </g>
    </g>
    <g id="xtick_2">
     <g id="line2d_2">
      <g>
       <use style="stroke:#000000;stroke-width:0.8;" x="117.12" xlink:href="#m5d10eeaf65" y="307.584"/>
      </g>
     </g>
     <g id="text_2">
      <!-- −10 -->
      <defs>
       <path d="M 31.78125 66.40625 
Q 24.171875 66.40625 20.328125 58.90625 
Q 16.5 51.421875 16.5 36.375 
Q 16.5 21.390625 20.328125 13.890625 
Q 24.171875 6.390625 31.78125 6.390625 
Q 39.453125 6.390625 43.28125 13.890625 
Q 47.125 21.390625 47.125 36.375 
Q 47.125 51.421875 43.28125 58.90625 
Q 39.453125 66.40625 31.78125 66.40625 
z
M 31.78125 74.21875 
Q 44.046875 74.21875 50.515625 64.515625 
Q 56.984375 54.828125 56.984375 36.375 
Q 56.984375 17.96875 50.515625 8.265625 
Q 44.046875 -1.421875 31.78125 -1.421875 
Q 19.53125 -1.421875 13.0625 8.265625 
Q 6.59375 17.96875 6.59375 36.375 
Q 6.59375 54.828125 13.0625 64.515625 
Q 19.53125 74.21875 31.78125 74.21875 
z
" id="DejaVuSans-48"/>
      </defs>
      <g transform="translate(106.567656 322.182437)scale(0.1 -0.1)">
       <use xlink:href="#DejaVuSans-8722"/>
       <use x="83.789062" xlink:href="#DejaVuSans-49"/>
       <use x="147.412109" xlink:href="#DejaVuSans-48"/>
      </g>
     </g>
    </g>
    <g id="xtick_3">
     <g id="line2d_3">
      <g>
       <use style="stroke:#000000;stroke-width:0.8;" x="176.64" xlink:href="#m5d10eeaf65" y="307.584"/>
      </g>
     </g>
     <g id="text_3">
      <!-- −8 -->
      <defs>
       <path d="M 31.78125 34.625 
Q 24.75 34.625 20.71875 30.859375 
Q 16.703125 27.09375 16.703125 20.515625 
Q 16.703125 13.921875 20.71875 10.15625 
Q 24.75 6.390625 31.78125 6.390625 
Q 38.8125 6.390625 42.859375 10.171875 
Q 46.921875 13.96875 46.921875 20.515625 
Q 46.921875 27.09375 42.890625 30.859375 
Q 38.875 34.625 31.78125 34.625 
z
M 21.921875 38.8125 
Q 15.578125 40.375 12.03125 44.71875 
Q 8.5 49.078125 8.5 55.328125 
Q 8.5 64.0625 14.71875 69.140625 
Q 20.953125 74.21875 31.78125 74.21875 
Q 42.671875 74.21875 48.875 69.140625 
Q 55.078125 64.0625 55.078125 55.328125 
Q 55.078125 49.078125 51.53125 44.71875 
Q 48 40.375 41.703125 38.8125 
Q 48.828125 37.15625 52.796875 32.3125 
Q 56.78125 27.484375 56.78125 20.515625 
Q 56.78125 9.90625 50.3125 4.234375 
Q 43.84375 -1.421875 31.78125 -1.421875 
Q 19.734375 -1.421875 13.25 4.234375 
Q 6.78125 9.90625 6.78125 20.515625 
Q 6.78125 27.484375 10.78125 32.3125 
Q 14.796875 37.15625 21.921875 38.8125 
z
M 18.3125 54.390625 
Q 18.3125 48.734375 21.84375 45.5625 
Q 25.390625 42.390625 31.78125 42.390625 
Q 38.140625 42.390625 41.71875 45.5625 
Q 45.3125 48.734375 45.3125 54.390625 
Q 45.3125 60.0625 41.71875 63.234375 
Q 38.140625 66.40625 31.78125 66.40625 
Q 25.390625 66.40625 21.84375 63.234375 
Q 18.3125 60.0625 18.3125 54.390625 
z
" id="DejaVuSans-56"/>
      </defs>
      <g transform="translate(169.268906 322.182437)scale(0.1 -0.1)">
       <use xlink:href="#DejaVuSans-8722"/>
       <use x="83.789062" xlink:href="#DejaVuSans-56"/>
      </g>
     </g>
    </g>
    <g id="xtick_4">
     <g id="line2d_4">
      <g>
       <use style="stroke:#000000;stroke-width:0.8;" x="236.16" xlink:href="#m5d10eeaf65" y="307.584"/>
      </g>
     </g>
     <g id="text_4">
      <!-- −6 -->
      <defs>
       <path d="M 33.015625 40.375 
Q 26.375 40.375 22.484375 35.828125 
Q 18.609375 31.296875 18.609375 23.390625 
Q 18.609375 15.53125 22.484375 10.953125 
Q 26.375 6.390625 33.015625 6.390625 
Q 39.65625 6.390625 43.53125 10.953125 
Q 47.40625 15.53125 47.40625 23.390625 
Q 47.40625 31.296875 43.53125 35.828125 
Q 39.65625 40.375 33.015625 40.375 
z
M 52.59375 71.296875 
L 52.59375 62.3125 
Q 48.875 64.0625 45.09375 64.984375 
Q 41.3125 65.921875 37.59375 65.921875 
Q 27.828125 65.921875 22.671875 59.328125 
Q 17.53125 52.734375 16.796875 39.40625 
Q 19.671875 43.65625 24.015625 45.921875 
Q 28.375 48.1875 33.59375 48.1875 
Q 44.578125 48.1875 50.953125 41.515625 
Q 57.328125 34.859375 57.328125 23.390625 
Q 57.328125 12.15625 50.6875 5.359375 
Q 44.046875 -1.421875 33.015625 -1.421875 
Q 20.359375 -1.421875 13.671875 8.265625 
Q 6.984375 17.96875 6.984375 36.375 
Q 6.984375 53.65625 15.1875 63.9375 
Q 23.390625 74.21875 37.203125 74.21875 
Q 40.921875 74.21875 44.703125 73.484375 
Q 48.484375 72.75 52.59375 71.296875 
z
" id="DejaVuSans-54"/>
      </defs>
      <g transform="translate(228.788906 322.182437)scale(0.1 -0.1)">
       <use xlink:href="#DejaVuSans-8722"/>
       <use x="83.789062" xlink:href="#DejaVuSans-54"/>
      </g>
     </g>
    </g>
    <g id="xtick_5">
     <g id="line2d_5">
      <g>
       <use style="stroke:#000000;stroke-width:0.8;" x="295.68" xlink:href="#m5d10eeaf65" y="307.584"/>
      </g>
     </g>
     <g id="text_5">
      <!-- −4 -->
      <defs>
       <path d="M 37.796875 64.3125 
L 12.890625 25.390625 
L 37.796875 25.390625 
z
M 35.203125 72.90625 
L 47.609375 72.90625 
L 47.609375 25.390625 
L 58.015625 25.390625 
L 58.015625 17.1875 
L 47.609375 17.1875 
L 47.609375 0 
L 37.796875 0 
L 37.796875 17.1875 
L 4.890625 17.1875 
L 4.890625 26.703125 
z
" id="DejaVuSans-52"/>
      </defs>
      <g transform="translate(288.308906 322.182437)scale(0.1 -0.1)">
       <use xlink:href="#DejaVuSans-8722"/>
       <use x="83.789062" xlink:href="#DejaVuSans-52"/>
      </g>
     </g>
    </g>
    <g id="xtick_6">
     <g id="line2d_6">
      <g>
       <use style="stroke:#000000;stroke-width:0.8;" x="355.2" xlink:href="#m5d10eeaf65" y="307.584"/>
      </g>
     </g>
     <g id="text_6">
      <!-- −2 -->
      <g transform="translate(347.828906 322.182437)scale(0.1 -0.1)">
       <use xlink:href="#DejaVuSans-8722"/>
       <use x="83.789062" xlink:href="#DejaVuSans-50"/>
      </g>
     </g>
    </g>
    <g id="xtick_7">
     <g id="line2d_7">
      <g>
       <use style="stroke:#000000;stroke-width:0.8;" x="414.72" xlink:href="#m5d10eeaf65" y="307.584"/>
      </g>
     </g>
     <g id="text_7">
      <!-- 0 -->
      <g transform="translate(411.53875 322.182437)scale(0.1 -0.1)">
       <use xlink:href="#DejaVuSans-48"/>
      </g>
     </g>
    </g>
    <g id="text_8">
     <!-- Elevation angle (deg) -->
     <defs>
      <path d="M 9.8125 72.90625 
L 55.90625 72.90625 
L 55.90625 64.59375 
L 19.671875 64.59375 
L 19.671875 43.015625 
L 54.390625 43.015625 
L 54.390625 34.71875 
L 19.671875 34.71875 
L 19.671875 8.296875 
L 56.78125 8.296875 
L 56.78125 0 
L 9.8125 0 
z
" id="DejaVuSans-69"/>
      <path d="M 9.421875 75.984375 
L 18.40625 75.984375 
L 18.40625 0 
L 9.421875 0 
z
" id="DejaVuSans-108"/>
      <path d="M 56.203125 29.59375 
L 56.203125 25.203125 
L 14.890625 25.203125 
Q 15.484375 15.921875 20.484375 11.0625 
Q 25.484375 6.203125 34.421875 6.203125 
Q 39.59375 6.203125 44.453125 7.46875 
Q 49.3125 8.734375 54.109375 11.28125 
L 54.109375 2.78125 
Q 49.265625 0.734375 44.1875 -0.34375 
Q 39.109375 -1.421875 33.890625 -1.421875 
Q 20.796875 -1.421875 13.15625 6.1875 
Q 5.515625 13.8125 5.515625 26.8125 
Q 5.515625 40.234375 12.765625 48.109375 
Q 20.015625 56 32.328125 56 
Q 43.359375 56 49.78125 48.890625 
Q 56.203125 41.796875 56.203125 29.59375 
z
M 47.21875 32.234375 
Q 47.125 39.59375 43.09375 43.984375 
Q 39.0625 48.390625 32.421875 48.390625 
Q 24.90625 48.390625 20.390625 44.140625 
Q 15.875 39.890625 15.1875 32.171875 
z
" id="DejaVuSans-101"/>
      <path d="M 2.984375 54.6875 
L 12.5 54.6875 
L 29.59375 8.796875 
L 46.6875 54.6875 
L 56.203125 54.6875 
L 35.6875 0 
L 23.484375 0 
z
" id="DejaVuSans-118"/>
      <path d="M 34.28125 27.484375 
Q 23.390625 27.484375 19.1875 25 
Q 14.984375 22.515625 14.984375 16.5 
Q 14.984375 11.71875 18.140625 8.90625 
Q 21.296875 6.109375 26.703125 6.109375 
Q 34.1875 6.109375 38.703125 11.40625 
Q 43.21875 16.703125 43.21875 25.484375 
L 43.21875 27.484375 
z
M 52.203125 31.203125 
L 52.203125 0 
L 43.21875 0 
L 43.21875 8.296875 
Q 40.140625 3.328125 35.546875 0.953125 
Q 30.953125 -1.421875 24.3125 -1.421875 
Q 15.921875 -1.421875 10.953125 3.296875 
Q 6 8.015625 6 15.921875 
Q 6 25.140625 12.171875 29.828125 
Q 18.359375 34.515625 30.609375 34.515625 
L 43.21875 34.515625 
L 43.21875 35.40625 
Q 43.21875 41.609375 39.140625 45 
Q 35.0625 48.390625 27.6875 48.390625 
Q 23 48.390625 18.546875 47.265625 
Q 14.109375 46.140625 10.015625 43.890625 
L 10.015625 52.203125 
Q 14.9375 54.109375 19.578125 55.046875 
Q 24.21875 56 28.609375 56 
Q 40.484375 56 46.34375 49.84375 
Q 52.203125 43.703125 52.203125 31.203125 
z
" id="DejaVuSans-97"/>
      <path d="M 18.3125 70.21875 
L 18.3125 54.6875 
L 36.8125 54.6875 
L 36.8125 47.703125 
L 18.3125 47.703125 
L 18.3125 18.015625 
Q 18.3125 11.328125 20.140625 9.421875 
Q 21.96875 7.515625 27.59375 7.515625 
L 36.8125 7.515625 
L 36.8125 0 
L 27.59375 0 
Q 17.1875 0 13.234375 3.875 
Q 9.28125 7.765625 9.28125 18.015625 
L 9.28125 47.703125 
L 2.6875 47.703125 
L 2.6875 54.6875 
L 9.28125 54.6875 
L 9.28125 70.21875 
z
" id="DejaVuSans-116"/>
      <path d="M 9.421875 54.6875 
L 18.40625 54.6875 
L 18.40625 0 
L 9.421875 0 
z
M 9.421875 75.984375 
L 18.40625 75.984375 
L 18.40625 64.59375 
L 9.421875 64.59375 
z
" id="DejaVuSans-105"/>
      <path d="M 30.609375 48.390625 
Q 23.390625 48.390625 19.1875 42.75 
Q 14.984375 37.109375 14.984375 27.296875 
Q 14.984375 17.484375 19.15625 11.84375 
Q 23.34375 6.203125 30.609375 6.203125 
Q 37.796875 6.203125 41.984375 11.859375 
Q 46.1875 17.53125 46.1875 27.296875 
Q 46.1875 37.015625 41.984375 42.703125 
Q 37.796875 48.390625 30.609375 48.390625 
z
M 30.609375 56 
Q 42.328125 56 49.015625 48.375 
Q 55.71875 40.765625 55.71875 27.296875 
Q 55.71875 13.875 49.015625 6.21875 
Q 42.328125 -1.421875 30.609375 -1.421875 
Q 18.84375 -1.421875 12.171875 6.21875 
Q 5.515625 13.875 5.515625 27.296875 
Q 5.515625 40.765625 12.171875 48.375 
Q 18.84375 56 30.609375 56 
z
" id="DejaVuSans-111"/>
      <path d="M 54.890625 33.015625 
L 54.890625 0 
L 45.90625 0 
L 45.90625 32.71875 
Q 45.90625 40.484375 42.875 44.328125 
Q 39.84375 48.1875 33.796875 48.1875 
Q 26.515625 48.1875 22.3125 43.546875 
Q 18.109375 38.921875 18.109375 30.90625 
L 18.109375 0 
L 9.078125 0 
L 9.078125 54.6875 
L 18.109375 54.6875 
L 18.109375 46.1875 
Q 21.34375 51.125 25.703125 53.5625 
Q 30.078125 56 35.796875 56 
Q 45.21875 56 50.046875 50.171875 
Q 54.890625 44.34375 54.890625 33.015625 
z
" id="DejaVuSans-110"/>
      <path id="DejaVuSans-32"/>
      <path d="M 45.40625 27.984375 
Q 45.40625 37.75 41.375 43.109375 
Q 37.359375 48.484375 30.078125 48.484375 
Q 22.859375 48.484375 18.828125 43.109375 
Q 14.796875 37.75 14.796875 27.984375 
Q 14.796875 18.265625 18.828125 12.890625 
Q 22.859375 7.515625 30.078125 7.515625 
Q 37.359375 7.515625 41.375 12.890625 
Q 45.40625 18.265625 45.40625 27.984375 
z
M 54.390625 6.78125 
Q 54.390625 -7.171875 48.1875 -13.984375 
Q 42 -20.796875 29.203125 -20.796875 
Q 24.46875 -20.796875 20.265625 -20.09375 
Q 16.0625 -19.390625 12.109375 -17.921875 
L 12.109375 -9.1875 
Q 16.0625 -11.328125 19.921875 -12.34375 
Q 23.78125 -13.375 27.78125 -13.375 
Q 36.625 -13.375 41.015625 -8.765625 
Q 45.40625 -4.15625 45.40625 5.171875 
L 45.40625 9.625 
Q 42.625 4.78125 38.28125 2.390625 
Q 33.9375 0 27.875 0 
Q 17.828125 0 11.671875 7.65625 
Q 5.515625 15.328125 5.515625 27.984375 
Q 5.515625 40.671875 11.671875 48.328125 
Q 17.828125 56 27.875 56 
Q 33.9375 56 38.28125 53.609375 
Q 42.625 51.21875 45.40625 46.390625 
L 45.40625 54.6875 
L 54.390625 54.6875 
z
" id="DejaVuSans-103"/>
      <path d="M 31 75.875 
Q 24.46875 64.65625 21.28125 53.65625 
Q 18.109375 42.671875 18.109375 31.390625 
Q 18.109375 20.125 21.3125 9.0625 
Q 24.515625 -2 31 -13.1875 
L 23.1875 -13.1875 
Q 15.875 -1.703125 12.234375 9.375 
Q 8.59375 20.453125 8.59375 31.390625 
Q 8.59375 42.28125 12.203125 53.3125 
Q 15.828125 64.359375 23.1875 75.875 
z
" id="DejaVuSans-40"/>
      <path d="M 45.40625 46.390625 
L 45.40625 75.984375 
L 54.390625 75.984375 
L 54.390625 0 
L 45.40625 0 
L 45.40625 8.203125 
Q 42.578125 3.328125 38.25 0.953125 
Q 33.9375 -1.421875 27.875 -1.421875 
Q 17.96875 -1.421875 11.734375 6.484375 
Q 5.515625 14.40625 5.515625 27.296875 
Q 5.515625 40.1875 11.734375 48.09375 
Q 17.96875 56 27.875 56 
Q 33.9375 56 38.25 53.625 
Q 42.578125 51.265625 45.40625 46.390625 
z
M 14.796875 27.296875 
Q 14.796875 17.390625 18.875 11.75 
Q 22.953125 6.109375 30.078125 6.109375 
Q 37.203125 6.109375 41.296875 11.75 
Q 45.40625 17.390625 45.40625 27.296875 
Q 45.40625 37.203125 41.296875 42.84375 
Q 37.203125 48.484375 30.078125 48.484375 
Q 22.953125 48.484375 18.875 42.84375 
Q 14.796875 37.203125 14.796875 27.296875 
z
" id="DejaVuSans-100"/>
      <path d="M 8.015625 75.875 
L 15.828125 75.875 
Q 23.140625 64.359375 26.78125 53.3125 
Q 30.421875 42.28125 30.421875 31.390625 
Q 30.421875 20.453125 26.78125 9.375 
Q 23.140625 -1.703125 15.828125 -13.1875 
L 8.015625 -13.1875 
Q 14.5 -2 17.703125 9.0625 
Q 20.90625 20.125 20.90625 31.390625 
Q 20.90625 42.671875 17.703125 53.65625 
Q 14.5 64.65625 8.015625 75.875 
z
" id="DejaVuSans-41"/>
     </defs>
     <g transform="translate(182.556875 335.860562)scale(0.1 -0.1)">
      <use xlink:href="#DejaVuSans-69"/>
      <use x="63.183594" xlink:href="#DejaVuSans-108"/>
      <use x="90.966797" xlink:href="#DejaVuSans-101"/>
      <use x="152.490234" xlink:href="#DejaVuSans-118"/>
      <use x="211.669922" xlink:href="#DejaVuSans-97"/>
      <use x="272.949219" xlink:href="#DejaVuSans-116"/>
      <use x="312.158203" xlink:href="#DejaVuSans-105"/>
      <use x="339.941406" xlink:href="#DejaVuSans-111"/>
      <use x="401.123047" xlink:href="#DejaVuSans-110"/>
      <use x="464.501953" xlink:href="#DejaVuSans-32"/>
      <use x="496.289062" xlink:href="#DejaVuSans-97"/>
      <use x="557.568359" xlink:href="#DejaVuSans-110"/>
      <use x="620.947266" xlink:href="#DejaVuSans-103"/>
      <use x="684.423828" xlink:href="#DejaVuSans-108"/>
      <use x="712.207031" xlink:href="#DejaVuSans-101"/>
      <use x="773.730469" xlink:href="#DejaVuSans-32"/>
      <use x="805.517578" xlink:href="#DejaVuSans-40"/>
      <use x="844.53125" xlink:href="#DejaVuSans-100"/>
      <use x="908.007812" xlink:href="#DejaVuSans-101"/>
      <use x="969.53125" xlink:href="#DejaVuSans-103"/>
      <use x="1033.007812" xlink:href="#DejaVuSans-41"/>
     </g>
    </g>
   </g>
   <g id="matplotlib.axis_2">
    <g id="ytick_1">
     <g id="line2d_8">
      <defs>
       <path d="M 0 0 
L -3.5 0 
" id="m8327ad0564" style="stroke:#000000;stroke-width:0.8;"/>
      </defs>
      <g>
       <use style="stroke:#000000;stroke-width:0.8;" x="57.6" xlink:href="#m8327ad0564" y="307.584"/>
      </g>
     </g>
     <g id="text_9">
      <!-- 0 -->
      <g transform="translate(44.2375 311.383219)scale(0.1 -0.1)">
       <use xlink:href="#DejaVuSans-48"/>
      </g>
     </g>
    </g>
    <g id="ytick_2">
     <g id="line2d_9">
      <g>
       <use style="stroke:#000000;stroke-width:0.8;" x="57.6" xlink:href="#m8327ad0564" y="263.232"/>
      </g>
     </g>
     <g id="text_10">
      <!-- 10 -->
      <g transform="translate(37.875 267.031219)scale(0.1 -0.1)">
       <use xlink:href="#DejaVuSans-49"/>
       <use x="63.623047" xlink:href="#DejaVuSans-48"/>
      </g>
     </g>
    </g>
    <g id="ytick_3">
     <g id="line2d_10">
      <g>
       <use style="stroke:#000000;stroke-width:0.8;" x="57.6" xlink:href="#m8327ad0564" y="218.88"/>
      </g>
     </g>
     <g id="text_11">
      <!-- 20 -->
      <g transform="translate(37.875 222.679219)scale(0.1 -0.1)">
       <use xlink:href="#DejaVuSans-50"/>
       <use x="63.623047" xlink:href="#DejaVuSans-48"/>
      </g>
     </g>
    </g>
    <g id="ytick_4">
     <g id="line2d_11">
      <g>
       <use style="stroke:#000000;stroke-width:0.8;" x="57.6" xlink:href="#m8327ad0564" y="174.528"/>
      </g>
     </g>
     <g id="text_12">
      <!-- 30 -->
      <defs>
       <path d="M 40.578125 39.3125 
Q 47.65625 37.796875 51.625 33 
Q 55.609375 28.21875 55.609375 21.1875 
Q 55.609375 10.40625 48.1875 4.484375 
Q 40.765625 -1.421875 27.09375 -1.421875 
Q 22.515625 -1.421875 17.65625 -0.515625 
Q 12.796875 0.390625 7.625 2.203125 
L 7.625 11.71875 
Q 11.71875 9.328125 16.59375 8.109375 
Q 21.484375 6.890625 26.8125 6.890625 
Q 36.078125 6.890625 40.9375 10.546875 
Q 45.796875 14.203125 45.796875 21.1875 
Q 45.796875 27.640625 41.28125 31.265625 
Q 36.765625 34.90625 28.71875 34.90625 
L 20.21875 34.90625 
L 20.21875 43.015625 
L 29.109375 43.015625 
Q 36.375 43.015625 40.234375 45.921875 
Q 44.09375 48.828125 44.09375 54.296875 
Q 44.09375 59.90625 40.109375 62.90625 
Q 36.140625 65.921875 28.71875 65.921875 
Q 24.65625 65.921875 20.015625 65.03125 
Q 15.375 64.15625 9.8125 62.3125 
L 9.8125 71.09375 
Q 15.4375 72.65625 20.34375 73.4375 
Q 25.25 74.21875 29.59375 74.21875 
Q 40.828125 74.21875 47.359375 69.109375 
Q 53.90625 64.015625 53.90625 55.328125 
Q 53.90625 49.265625 50.4375 45.09375 
Q 46.96875 40.921875 40.578125 39.3125 
z
" id="DejaVuSans-51"/>
      </defs>
      <g transform="translate(37.875 178.327219)scale(0.1 -0.1)">
       <use xlink:href="#DejaVuSans-51"/>
       <use x="63.623047" xlink:href="#DejaVuSans-48"/>
      </g>
     </g>
    </g>
    <g id="ytick_5">
     <g id="line2d_12">
      <g>
       <use style="stroke:#000000;stroke-width:0.8;" x="57.6" xlink:href="#m8327ad0564" y="130.176"/>
      </g>
     </g>
     <g id="text_13">
      <!-- 40 -->
      <g transform="translate(37.875 133.975219)scale(0.1 -0.1)">
       <use xlink:href="#DejaVuSans-52"/>
       <use x="63.623047" xlink:href="#DejaVuSans-48"/>
      </g>
     </g>
    </g>
    <g id="ytick_6">
     <g id="line2d_13">
      <g>
       <use style="stroke:#000000;stroke-width:0.8;" x="57.6" xlink:href="#m8327ad0564" y="85.824"/>
      </g>
     </g>
     <g id="text_14">
      <!-- 50 -->
      <defs>
       <path d="M 10.796875 72.90625 
L 49.515625 72.90625 
L 49.515625 64.59375 
L 19.828125 64.59375 
L 19.828125 46.734375 
Q 21.96875 47.46875 24.109375 47.828125 
Q 26.265625 48.1875 28.421875 48.1875 
Q 40.625 48.1875 47.75 41.5 
Q 54.890625 34.8125 54.890625 23.390625 
Q 54.890625 11.625 47.5625 5.09375 
Q 40.234375 -1.421875 26.90625 -1.421875 
Q 22.3125 -1.421875 17.546875 -0.640625 
Q 12.796875 0.140625 7.71875 1.703125 
L 7.71875 11.625 
Q 12.109375 9.234375 16.796875 8.0625 
Q 21.484375 6.890625 26.703125 6.890625 
Q 35.15625 6.890625 40.078125 11.328125 
Q 45.015625 15.765625 45.015625 23.390625 
Q 45.015625 31 40.078125 35.4375 
Q 35.15625 39.890625 26.703125 39.890625 
Q 22.75 39.890625 18.8125 39.015625 
Q 14.890625 38.140625 10.796875 36.28125 
z
" id="DejaVuSans-53"/>
      </defs>
      <g transform="translate(37.875 89.623219)scale(0.1 -0.1)">
       <use xlink:href="#DejaVuSans-53"/>
       <use x="63.623047" xlink:href="#DejaVuSans-48"/>
      </g>
     </g>
    </g>
    <g id="ytick_7">
     <g id="line2d_14">
      <g>
       <use style="stroke:#000000;stroke-width:0.8;" x="57.6" xlink:href="#m8327ad0564" y="41.472"/>
      </g>
     </g>
     <g id="text_15">
      <!-- 60 -->
      <g transform="translate(37.875 45.271219)scale(0.1 -0.1)">
       <use xlink:href="#DejaVuSans-54"/>
       <use x="63.623047" xlink:href="#DejaVuSans-48"/>
      </g>
     </g>
    </g>
    <g id="text_16">
     <!-- Depth (m) -->
     <defs>
      <path d="M 19.671875 64.796875 
L 19.671875 8.109375 
L 31.59375 8.109375 
Q 46.6875 8.109375 53.6875 14.9375 
Q 60.6875 21.78125 60.6875 36.53125 
Q 60.6875 51.171875 53.6875 57.984375 
Q 46.6875 64.796875 31.59375 64.796875 
z
M 9.8125 72.90625 
L 30.078125 72.90625 
Q 51.265625 72.90625 61.171875 64.09375 
Q 71.09375 55.28125 71.09375 36.53125 
Q 71.09375 17.671875 61.125 8.828125 
Q 51.171875 0 30.078125 0 
L 9.8125 0 
z
" id="DejaVuSans-68"/>
      <path d="M 18.109375 8.203125 
L 18.109375 -20.796875 
L 9.078125 -20.796875 
L 9.078125 54.6875 
L 18.109375 54.6875 
L 18.109375 46.390625 
Q 20.953125 51.265625 25.265625 53.625 
Q 29.59375 56 35.59375 56 
Q 45.5625 56 51.78125 48.09375 
Q 58.015625 40.1875 58.015625 27.296875 
Q 58.015625 14.40625 51.78125 6.484375 
Q 45.5625 -1.421875 35.59375 -1.421875 
Q 29.59375 -1.421875 25.265625 0.953125 
Q 20.953125 3.328125 18.109375 8.203125 
z
M 48.6875 27.296875 
Q 48.6875 37.203125 44.609375 42.84375 
Q 40.53125 48.484375 33.40625 48.484375 
Q 26.265625 48.484375 22.1875 42.84375 
Q 18.109375 37.203125 18.109375 27.296875 
Q 18.109375 17.390625 22.1875 11.75 
Q 26.265625 6.109375 33.40625 6.109375 
Q 40.53125 6.109375 44.609375 11.75 
Q 48.6875 17.390625 48.6875 27.296875 
z
" id="DejaVuSans-112"/>
      <path d="M 54.890625 33.015625 
L 54.890625 0 
L 45.90625 0 
L 45.90625 32.71875 
Q 45.90625 40.484375 42.875 44.328125 
Q 39.84375 48.1875 33.796875 48.1875 
Q 26.515625 48.1875 22.3125 43.546875 
Q 18.109375 38.921875 18.109375 30.90625 
L 18.109375 0 
L 9.078125 0 
L 9.078125 75.984375 
L 18.109375 75.984375 
L 18.109375 46.1875 
Q 21.34375 51.125 25.703125 53.5625 
Q 30.078125 56 35.796875 56 
Q 45.21875 56 50.046875 50.171875 
Q 54.890625 44.34375 54.890625 33.015625 
z
" id="DejaVuSans-104"/>
      <path d="M 52 44.1875 
Q 55.375 50.25 60.0625 53.125 
Q 64.75 56 71.09375 56 
Q 79.640625 56 84.28125 50.015625 
Q 88.921875 44.046875 88.921875 33.015625 
L 88.921875 0 
L 79.890625 0 
L 79.890625 32.71875 
Q 79.890625 40.578125 77.09375 44.375 
Q 74.3125 48.1875 68.609375 48.1875 
Q 61.625 48.1875 57.5625 43.546875 
Q 53.515625 38.921875 53.515625 30.90625 
L 53.515625 0 
L 44.484375 0 
L 44.484375 32.71875 
Q 44.484375 40.625 41.703125 44.40625 
Q 38.921875 48.1875 33.109375 48.1875 
Q 26.21875 48.1875 22.15625 43.53125 
Q 18.109375 38.875 18.109375 30.90625 
L 18.109375 0 
L 9.078125 0 
L 9.078125 54.6875 
L 18.109375 54.6875 
L 18.109375 46.1875 
Q 21.1875 51.21875 25.484375 53.609375 
Q 29.78125 56 35.6875 56 
Q 41.65625 56 45.828125 52.96875 
Q 50 49.953125 52 44.1875 
z
" id="DejaVuSans-109"/>
     </defs>
     <g transform="translate(31.795312 200.118625)rotate(-90)scale(0.1 -0.1)">
      <use xlink:href="#DejaVuSans-68"/>
      <use x="77.001953" xlink:href="#DejaVuSans-101"/>
      <use x="138.525391" xlink:href="#DejaVuSans-112"/>
      <use x="202.001953" xlink:href="#DejaVuSans-116"/>
      <use x="241.210938" xlink:href="#DejaVuSans-104"/>
      <use x="304.589844" xlink:href="#DejaVuSans-32"/>
      <use x="336.376953" xlink:href="#DejaVuSans-40"/>
      <use x="375.390625" xlink:href="#DejaVuSans-109"/>
      <use x="472.802734" xlink:href="#DejaVuSans-41"/>
     </g>
    </g>
   </g>
   <g id="line2d_15">
    <path clip-path="url(#p1ea1384850)" d="M 414.303583 164.51499 
L 413.47075 164.259476 
L 412.637917 164.836077 
L 411.805084 165.987992 
L 410.972251 165.549769 
L 408.473752 166.314988 
L 407.640919 167.309661 
L 406.808086 167.415826 
L 405.975253 168.442402 
L 405.14242 168.872153 
L 404.309587 169.036943 
L 403.476754 169.323483 
L 402.643921 170.1983 
L 401.811088 170.718436 
L 400.145422 172.23892 
L 399.312589 172.821604 
L 398.479756 173.256541 
L 397.646923 173.497576 
L 396.81409 174.730151 
L 395.148423 176.161118 
L 394.31559 177.193583 
L 393.482757 177.704178 
L 391.817091 179.205501 
L 390.984258 179.797979 
L 390.151425 180.618819 
L 388.485759 181.775638 
L 383.488761 186.276139 
L 381.823094 187.516634 
L 380.990263 188.320789 
L 380.157429 188.875438 
L 379.324596 189.753306 
L 378.491762 190.393393 
L 377.658929 190.86696 
L 376.826098 191.734262 
L 375.160431 193.115393 
L 374.327597 193.963083 
L 373.494764 194.527431 
L 372.66193 195.297843 
L 370.996266 196.232318 
L 365.999267 200.504261 
L 365.166434 200.861173 
L 360.169435 204.728179 
L 357.670937 206.496057 
L 356.00527 207.431164 
L 351.008271 210.848199 
L 349.342607 211.843796 
L 348.509773 212.544897 
L 346.011273 214.080522 
L 344.345608 214.883383 
L 341.014277 216.914967 
L 336.850112 218.917422 
L 333.518778 220.650525 
L 331.853113 221.441575 
L 328.521779 223.183277 
L 323.524783 225.649076 
L 321.026282 226.765169 
L 304.369622 233.744088 
L 302.703955 234.318782 
L 291.877127 238.380429 
L 286.880129 240.06792 
L 280.217463 242.31027 
L 277.718965 243.062099 
L 275.220464 243.932749 
L 267.724968 246.261705 
L 264.393636 247.184802 
L 259.396638 248.575529 
L 253.566806 250.067204 
L 250.235474 250.96605 
L 247.736976 251.541002 
L 235.244478 254.562687 
L 232.74598 255.094627 
L 230.247483 255.595475 
L 219.420652 257.832821 
L 211.925155 259.242422 
L 189.438663 262.781175 
L 185.274498 263.407629 
L 183.608831 263.645001 
L 180.277499 264.129203 
L 177.778999 264.475746 
L 165.286503 266.196078 
L 159.456674 266.982294 
L 153.626842 267.755341 
L 121.146352 271.689891 
L 106.155345 273.190054 
L 100.325539 273.752726 
L 82.0032 275.349146 
L 82.0032 275.349146 
" style="fill:none;stroke:#000000;stroke-linecap:square;stroke-width:0.5;"/>
   </g>
   <g id="line2d_16">
    <path clip-path="url(#p1ea1384850)" d="M 414.303583 271.211684 
L 413.47075 271.145094 
L 412.637917 271.483118 
L 411.805084 271.541457 
L 410.139418 271.335579 
L 409.306585 271.401301 
L 408.473752 272.14748 
L 406.808086 271.442727 
L 405.14242 271.715407 
L 404.309587 271.264192 
L 402.643921 271.434108 
L 400.978255 270.815747 
L 399.312589 270.809916 
L 397.646923 270.320117 
L 396.81409 270.009207 
L 395.981256 269.847039 
L 394.31559 269.898623 
L 393.482757 269.863365 
L 392.649924 270.007365 
L 391.817091 269.88517 
L 390.984258 269.468483 
L 385.98726 268.688021 
L 385.154427 268.815457 
L 384.321594 268.738085 
L 380.157429 267.737322 
L 379.324596 267.681759 
L 378.491762 267.850691 
L 377.658929 267.848497 
L 376.826098 267.675873 
L 375.160431 267.809377 
L 373.494764 267.365344 
L 372.66193 267.41085 
L 370.996266 266.982995 
L 370.163432 267.135069 
L 369.330599 266.856417 
L 368.497765 266.709597 
L 367.664934 266.448383 
L 366.832101 266.454587 
L 365.999267 266.614571 
L 365.166434 266.645687 
L 364.3336 266.560545 
L 363.500769 266.704757 
L 362.667936 266.445442 
L 361.835102 266.508033 
L 361.002269 266.420227 
L 360.169435 266.659666 
L 359.336601 266.627396 
L 357.670937 266.980627 
L 356.838103 267.04321 
L 356.00527 266.856492 
L 354.339606 266.965479 
L 353.506772 267.270848 
L 351.008271 267.465472 
L 350.175441 267.680759 
L 349.342607 267.642838 
L 348.509773 267.843151 
L 346.844106 268.012973 
L 344.345608 268.640055 
L 342.679941 268.526026 
L 339.34861 268.804544 
L 338.515776 269.102292 
L 336.850112 269.04721 
L 336.017278 269.166374 
L 334.351611 269.280237 
L 333.518778 269.522712 
L 327.688948 270.03837 
L 321.859116 270.56192 
L 320.193449 270.68066 
L 309.366621 271.419262 
L 308.533787 271.351263 
L 305.202456 271.731414 
L 291.044294 272.506867 
L 289.378627 272.703013 
L 288.545793 272.776215 
L 287.712962 272.974162 
L 274.387634 273.740206 
L 273.5548 273.653212 
L 272.721966 273.80787 
L 271.056299 273.823657 
L 269.390635 273.955797 
L 268.557801 274.088866 
L 267.724968 274.058039 
L 266.059304 274.175441 
L 260.229471 274.480496 
L 259.396638 274.582226 
L 257.730971 274.570607 
L 256.89814 274.691802 
L 255.232473 274.746271 
L 254.399639 274.912703 
L 251.068308 275.061599 
L 250.235474 275.168855 
L 249.402641 275.11803 
L 244.405642 275.668352 
L 242.739978 275.702835 
L 241.907144 275.900546 
L 241.07431 275.917667 
L 238.575813 276.317812 
L 236.910145 276.138624 
L 235.244478 276.626791 
L 231.080313 277.021505 
L 228.581815 277.494199 
L 218.587818 278.274374 
L 217.754985 278.484322 
L 212.757989 278.676067 
L 211.925155 278.932986 
L 206.928157 279.180907 
L 204.429656 279.535708 
L 201.098324 279.689744 
L 200.265491 279.912916 
L 196.934159 280.152138 
L 196.101326 280.067471 
L 195.268492 280.19375 
L 194.435662 280.450167 
L 190.271497 280.645406 
L 188.605829 280.997143 
L 183.608831 281.144897 
L 182.775997 281.306517 
L 178.611832 281.180937 
L 177.778999 281.446779 
L 175.280501 281.561906 
L 173.614834 281.430272 
L 171.949169 281.746208 
L 167.785004 281.655013 
L 166.952171 281.892559 
L 166.119337 281.973009 
L 162.788006 281.782308 
L 160.289505 281.931898 
L 158.623841 281.933067 
L 157.791007 281.86043 
L 156.12534 281.971102 
L 155.292506 282.177622 
L 153.626842 282.092529 
L 152.794008 282.117343 
L 151.961175 281.989923 
L 150.295511 282.200053 
L 143.632845 282.232977 
L 139.46868 282.158341 
L 136.970182 282.243225 
L 136.137348 282.144403 
L 135.304515 282.276093 
L 133.638847 282.29073 
L 124.477684 282.293129 
L 121.146352 282.424329 
L 110.319513 282.653597 
L 82.0032 283.563978 
L 82.0032 283.563978 
" style="fill:none;stroke:#000000;stroke-linecap:square;stroke-opacity:0.3;stroke-width:0.5;"/>
   </g>
   <g id="line2d_17">
    <path clip-path="url(#p1ea1384850)" d="M 414.303583 57.818295 
L 413.47075 57.373859 
L 412.637917 58.189036 
L 411.805084 60.434527 
L 410.972251 59.697528 
L 409.306585 60.731795 
L 408.473752 60.482495 
L 407.640919 62.80557 
L 406.808086 63.388924 
L 405.975253 65.33942 
L 403.476754 67.309591 
L 402.643921 68.962491 
L 401.811088 70.342039 
L 400.978255 72.280033 
L 399.312589 74.833292 
L 398.479756 75.892025 
L 397.646923 76.675034 
L 396.81409 79.451094 
L 395.148423 82.426333 
L 394.31559 84.488542 
L 393.482757 85.54499 
L 391.817091 88.525831 
L 389.318592 93.153302 
L 388.485759 94.407612 
L 385.98726 99.370421 
L 384.321594 102.151603 
L 383.488761 104.021211 
L 382.655927 105.284424 
L 379.324596 111.824853 
L 377.658929 113.885422 
L 376.826098 115.792651 
L 375.993264 116.979414 
L 375.160431 118.421408 
L 374.327597 120.327632 
L 371.829099 124.246843 
L 370.163432 126.70656 
L 368.497765 129.961557 
L 367.664934 131.577057 
L 366.832101 132.773766 
L 365.999267 134.393951 
L 365.166434 135.076659 
L 364.3336 136.488239 
L 363.500769 137.399125 
L 362.667936 139.11431 
L 361.835102 140.260443 
L 361.002269 141.821816 
L 360.169435 142.796692 
L 359.336601 144.07399 
L 356.838103 146.855681 
L 354.339606 150.385501 
L 353.506772 151.265474 
L 351.841105 153.280059 
L 351.008271 154.230926 
L 350.175441 154.889582 
L 347.67694 158.222159 
L 346.011273 159.928258 
L 344.345608 161.126711 
L 342.679941 163.318404 
L 341.014277 165.172359 
L 340.181443 165.832309 
L 339.34861 166.654058 
L 338.515776 166.936244 
L 336.850112 168.787633 
L 336.017278 169.565313 
L 335.184445 170.521021 
L 334.351611 171.232854 
L 332.685944 172.449361 
L 331.853113 173.154927 
L 329.354613 175.750608 
L 326.023281 178.603442 
L 325.190448 179.346724 
L 324.357614 180.282457 
L 321.859116 182.155582 
L 321.026282 182.960904 
L 319.360615 184.169211 
L 317.694951 185.690434 
L 316.862117 186.445846 
L 315.19645 187.534368 
L 312.697952 189.62243 
L 309.366621 191.95263 
L 308.533787 192.765378 
L 306.035287 194.562971 
L 304.369622 195.715745 
L 303.536789 196.05566 
L 301.871122 197.409724 
L 300.205457 198.632043 
L 299.372624 199.132751 
L 298.53979 199.883928 
L 296.041292 201.423083 
L 295.208459 202.271888 
L 292.709961 203.917921 
L 288.545793 206.171572 
L 286.880129 207.108314 
L 286.047295 207.714502 
L 284.381628 208.391684 
L 283.548797 209.176755 
L 281.050296 210.656841 
L 280.217463 211.236122 
L 278.551799 212.078756 
L 277.718965 212.54226 
L 276.053298 213.683279 
L 275.220464 214.087846 
L 273.5548 215.252277 
L 272.721966 215.553812 
L 271.056299 216.630097 
L 265.22647 219.736221 
L 264.393636 220.116816 
L 263.560803 220.65549 
L 261.895136 221.409339 
L 260.229471 222.240582 
L 259.396638 222.568833 
L 258.563804 223.083477 
L 256.89814 223.87323 
L 256.065306 224.328693 
L 254.399639 224.786593 
L 249.402641 227.263653 
L 247.736976 227.712387 
L 246.904143 228.134951 
L 245.238475 228.682653 
L 243.572811 229.541286 
L 242.739978 229.961303 
L 241.907144 230.114327 
L 241.07431 230.511442 
L 238.575813 231.233286 
L 236.910145 232.276271 
L 235.244478 232.498582 
L 234.411648 232.720797 
L 233.578814 233.058174 
L 231.913147 233.601609 
L 231.080313 233.927032 
L 229.414649 234.107443 
L 228.581815 234.317707 
L 224.41765 235.926455 
L 223.584817 236.088756 
L 221.91915 236.656401 
L 220.253485 237.109364 
L 218.587818 237.725003 
L 217.754985 237.816452 
L 216.922154 238.125535 
L 216.08932 238.267143 
L 212.757989 239.596661 
L 211.925155 239.551859 
L 208.593821 240.457173 
L 207.76099 240.842289 
L 202.763992 241.845241 
L 201.098324 242.360467 
L 200.265491 242.279902 
L 196.934159 243.139443 
L 196.101326 243.574203 
L 195.268492 243.678616 
L 194.435662 243.573861 
L 193.602828 243.839953 
L 191.937161 244.222507 
L 190.271497 244.733547 
L 188.605829 244.788259 
L 185.274498 245.73328 
L 184.441664 246.185215 
L 182.775997 246.183565 
L 181.943164 246.51336 
L 180.277499 246.945411 
L 178.611832 247.617657 
L 177.778999 247.504713 
L 176.946168 247.653101 
L 173.614834 248.735177 
L 171.116336 249.02307 
L 170.283502 249.247062 
L 169.450668 249.591142 
L 167.785004 250.065616 
L 166.952171 250.00366 
L 166.119337 250.135789 
L 164.45367 250.811795 
L 163.620839 250.968284 
L 162.788006 251.316596 
L 161.122338 251.458413 
L 160.289505 251.828887 
L 159.456674 251.981719 
L 157.791007 252.576849 
L 156.12534 252.921738 
L 155.292506 252.853902 
L 153.626842 253.418154 
L 152.794008 253.600829 
L 151.961175 253.956838 
L 149.462677 254.346343 
L 148.629843 254.668708 
L 146.964176 254.988623 
L 146.131346 255.273893 
L 144.465678 255.570431 
L 141.134347 256.649453 
L 138.635846 257.056658 
L 136.970182 257.491168 
L 136.137348 257.783823 
L 135.304515 257.808739 
L 134.471681 258.058762 
L 132.806017 258.392129 
L 131.14035 258.812606 
L 128.641849 259.402033 
L 126.143351 259.944824 
L 120.313519 261.101491 
L 109.486679 263.063559 
L 106.155345 263.614677 
L 105.322511 263.798437 
L 103.656874 263.993898 
L 101.991206 264.309912 
L 101.158373 264.39177 
L 100.325539 264.595296 
L 98.659872 264.782254 
L 96.994205 265.068414 
L 93.66287 265.54665 
L 92.830037 265.775769 
L 91.16437 265.908373 
L 89.498702 266.161014 
L 83.668867 266.940427 
L 82.836034 267.121874 
L 82.0032 267.134315 
L 82.0032 267.134315 
" style="fill:none;stroke:#000000;stroke-linecap:square;stroke-opacity:0.3;stroke-width:0.5;"/>
   </g>
   <g id="patch_3">
    <path d="M 57.6 307.584 
L 57.6 41.472 
" style="fill:none;stroke:#000000;stroke-linecap:square;stroke-linejoin:miter;stroke-width:0.8;"/>
   </g>
   <g id="patch_4">
    <path d="M 414.72 307.584 
L 414.72 41.472 
" style="fill:none;stroke:#000000;stroke-linecap:square;stroke-linejoin:miter;stroke-width:0.8;"/>
   </g>
   <g id="patch_5">
    <path d="M 57.6 307.584 
L 414.72 307.584 
" style="fill:none;stroke:#000000;stroke-linecap:square;stroke-linejoin:miter;stroke-width:0.8;"/>
   </g>
   <g id="patch_6">
    <path d="M 57.6 41.472 
L 414.72 41.472 
" style="fill:none;stroke:#000000;stroke-linecap:square;stroke-linejoin:miter;stroke-width:0.8;"/>
   </g>
  </g>
 </g>
 <defs>
  <clipPath id="p1ea1384850">
   <rect height="266.112" width="357.12" x="57.6" y="41.472"/>
  </clipPath>
 </defs>
</svg>
